<mxfile host="app.diagrams.net" modified="2024-06-23T12:21:19.691Z" agent="Mozilla/5.0 (Windows NT 10.0; Win64; x64) AppleWebKit/537.36 (KHTML, like Gecko) Chrome/126.0.0.0 Safari/537.36" etag="xu08I0qUy0bnVox8xHL2" version="24.6.2" type="github">
  <diagram name="Page-1" id="2YBvvXClWsGukQMizWep">
    <mxGraphModel dx="794" dy="493" grid="0" gridSize="10" guides="1" tooltips="1" connect="1" arrows="1" fold="1" page="1" pageScale="1" pageWidth="850" pageHeight="1100" math="0" shadow="0">
      <root>
        <mxCell id="0" />
        <mxCell id="1" parent="0" />
        <mxCell id="aM9ryv3xv72pqoxQDRHE-1" value="Customer&amp;nbsp;" style="shape=umlLifeline;perimeter=lifelinePerimeter;whiteSpace=wrap;html=1;container=0;dropTarget=0;collapsible=0;recursiveResize=0;outlineConnect=0;portConstraint=eastwest;newEdgeStyle={&quot;edgeStyle&quot;:&quot;elbowEdgeStyle&quot;,&quot;elbow&quot;:&quot;vertical&quot;,&quot;curved&quot;:0,&quot;rounded&quot;:0};fillColor=#1ba1e2;strokeColor=#006EAF;fontColor=#ffffff;strokeWidth=3;" parent="1" vertex="1">
          <mxGeometry x="100" y="150" width="100" height="350" as="geometry" />
        </mxCell>
        <mxCell id="aM9ryv3xv72pqoxQDRHE-2" value="" style="html=1;points=[];perimeter=orthogonalPerimeter;outlineConnect=0;targetShapes=umlLifeline;portConstraint=eastwest;newEdgeStyle={&quot;edgeStyle&quot;:&quot;elbowEdgeStyle&quot;,&quot;elbow&quot;:&quot;vertical&quot;,&quot;curved&quot;:0,&quot;rounded&quot;:0};" parent="aM9ryv3xv72pqoxQDRHE-1" vertex="1">
          <mxGeometry x="45" y="70" width="10" height="210" as="geometry" />
        </mxCell>
        <mxCell id="aM9ryv3xv72pqoxQDRHE-4" value="" style="html=1;points=[];perimeter=orthogonalPerimeter;outlineConnect=0;targetShapes=umlLifeline;portConstraint=eastwest;newEdgeStyle={&quot;edgeStyle&quot;:&quot;elbowEdgeStyle&quot;,&quot;elbow&quot;:&quot;vertical&quot;,&quot;curved&quot;:0,&quot;rounded&quot;:0};" parent="aM9ryv3xv72pqoxQDRHE-1" vertex="1">
          <mxGeometry x="50" y="120" width="10" height="80" as="geometry" />
        </mxCell>
        <mxCell id="aM9ryv3xv72pqoxQDRHE-5" value="E-Commerce System" style="shape=umlLifeline;perimeter=lifelinePerimeter;whiteSpace=wrap;html=1;container=0;dropTarget=0;collapsible=0;recursiveResize=0;outlineConnect=0;portConstraint=eastwest;newEdgeStyle={&quot;edgeStyle&quot;:&quot;elbowEdgeStyle&quot;,&quot;elbow&quot;:&quot;vertical&quot;,&quot;curved&quot;:0,&quot;rounded&quot;:0};fillColor=#60a917;fontColor=#ffffff;strokeColor=#2D7600;strokeWidth=3;" parent="1" vertex="1">
          <mxGeometry x="260" y="120" width="100" height="360" as="geometry" />
        </mxCell>
        <mxCell id="aM9ryv3xv72pqoxQDRHE-6" value="" style="html=1;points=[];perimeter=orthogonalPerimeter;outlineConnect=0;targetShapes=umlLifeline;portConstraint=eastwest;newEdgeStyle={&quot;edgeStyle&quot;:&quot;elbowEdgeStyle&quot;,&quot;elbow&quot;:&quot;vertical&quot;,&quot;curved&quot;:0,&quot;rounded&quot;:0};" parent="aM9ryv3xv72pqoxQDRHE-5" vertex="1">
          <mxGeometry x="45" y="80" width="10" height="210" as="geometry" />
        </mxCell>
        <mxCell id="aM9ryv3xv72pqoxQDRHE-7" value="&lt;b&gt;&lt;font style=&quot;font-size: 12px;&quot;&gt;Checkout&lt;/font&gt;&lt;/b&gt;" style="html=1;verticalAlign=bottom;endArrow=block;edgeStyle=elbowEdgeStyle;elbow=vertical;curved=0;rounded=0;strokeWidth=3;" parent="1" edge="1">
          <mxGeometry relative="1" as="geometry">
            <mxPoint x="155" y="230" as="sourcePoint" />
            <Array as="points">
              <mxPoint x="240" y="230" />
            </Array>
            <mxPoint x="305" y="230" as="targetPoint" />
            <mxPoint as="offset" />
          </mxGeometry>
        </mxCell>
        <mxCell id="aM9ryv3xv72pqoxQDRHE-8" value="&lt;b&gt;&lt;font style=&quot;font-size: 12px;&quot;&gt;Order Confirmation&lt;/font&gt;&lt;/b&gt;" style="html=1;verticalAlign=bottom;endArrow=open;dashed=1;endSize=8;edgeStyle=elbowEdgeStyle;elbow=horizontal;curved=0;rounded=0;strokeWidth=3;" parent="1" source="aM9ryv3xv72pqoxQDRHE-6" target="aM9ryv3xv72pqoxQDRHE-2" edge="1">
          <mxGeometry relative="1" as="geometry">
            <mxPoint x="255" y="295" as="targetPoint" />
            <Array as="points">
              <mxPoint x="250" y="370" />
            </Array>
          </mxGeometry>
        </mxCell>
        <mxCell id="aM9ryv3xv72pqoxQDRHE-9" value="&lt;b&gt;&lt;font style=&quot;font-size: 12px;&quot;&gt;Cart Validated&lt;/font&gt;&lt;/b&gt;" style="html=1;verticalAlign=bottom;endArrow=block;edgeStyle=elbowEdgeStyle;elbow=vertical;curved=0;rounded=0;dashed=1;strokeWidth=3;" parent="1" source="d961pAcXIoGaJ5iv9Bcx-2" target="aM9ryv3xv72pqoxQDRHE-6" edge="1">
          <mxGeometry x="0.0345" relative="1" as="geometry">
            <mxPoint x="470" y="280" as="sourcePoint" />
            <Array as="points">
              <mxPoint x="400" y="279.5" />
            </Array>
            <mxPoint x="320" y="280" as="targetPoint" />
            <mxPoint as="offset" />
          </mxGeometry>
        </mxCell>
        <mxCell id="aM9ryv3xv72pqoxQDRHE-10" value="&lt;b&gt;&lt;font style=&quot;font-size: 12px;&quot;&gt;Process Payment&lt;/font&gt;&lt;/b&gt;" style="html=1;verticalAlign=bottom;endArrow=open;endSize=8;edgeStyle=elbowEdgeStyle;elbow=horizontal;curved=0;rounded=0;strokeWidth=3;" parent="1" source="aM9ryv3xv72pqoxQDRHE-6" target="d961pAcXIoGaJ5iv9Bcx-2" edge="1">
          <mxGeometry relative="1" as="geometry">
            <mxPoint x="465" y="320" as="targetPoint" />
            <Array as="points">
              <mxPoint x="400" y="320" />
            </Array>
            <mxPoint x="320" y="320" as="sourcePoint" />
          </mxGeometry>
        </mxCell>
        <mxCell id="d961pAcXIoGaJ5iv9Bcx-1" value="Payment Gateway" style="shape=umlLifeline;perimeter=lifelinePerimeter;whiteSpace=wrap;html=1;container=0;dropTarget=0;collapsible=0;recursiveResize=0;outlineConnect=0;portConstraint=eastwest;newEdgeStyle={&quot;edgeStyle&quot;:&quot;elbowEdgeStyle&quot;,&quot;elbow&quot;:&quot;vertical&quot;,&quot;curved&quot;:0,&quot;rounded&quot;:0};fillColor=#6a00ff;fontColor=#ffffff;strokeColor=#3700CC;strokeWidth=3;" vertex="1" parent="1">
          <mxGeometry x="420" y="150" width="100" height="350" as="geometry" />
        </mxCell>
        <mxCell id="d961pAcXIoGaJ5iv9Bcx-2" value="" style="html=1;points=[];perimeter=orthogonalPerimeter;outlineConnect=0;targetShapes=umlLifeline;portConstraint=eastwest;newEdgeStyle={&quot;edgeStyle&quot;:&quot;elbowEdgeStyle&quot;,&quot;elbow&quot;:&quot;vertical&quot;,&quot;curved&quot;:0,&quot;rounded&quot;:0};" vertex="1" parent="d961pAcXIoGaJ5iv9Bcx-1">
          <mxGeometry x="45" y="80" width="10" height="200" as="geometry" />
        </mxCell>
        <mxCell id="d961pAcXIoGaJ5iv9Bcx-3" value="Order Database" style="shape=umlLifeline;perimeter=lifelinePerimeter;whiteSpace=wrap;html=1;container=0;dropTarget=0;collapsible=0;recursiveResize=0;outlineConnect=0;portConstraint=eastwest;newEdgeStyle={&quot;edgeStyle&quot;:&quot;elbowEdgeStyle&quot;,&quot;elbow&quot;:&quot;vertical&quot;,&quot;curved&quot;:0,&quot;rounded&quot;:0};fillColor=#fa6800;fontColor=#000000;strokeColor=#C73500;strokeWidth=3;" vertex="1" parent="1">
          <mxGeometry x="600" y="120" width="100" height="360" as="geometry" />
        </mxCell>
        <mxCell id="d961pAcXIoGaJ5iv9Bcx-4" value="" style="html=1;points=[];perimeter=orthogonalPerimeter;outlineConnect=0;targetShapes=umlLifeline;portConstraint=eastwest;newEdgeStyle={&quot;edgeStyle&quot;:&quot;elbowEdgeStyle&quot;,&quot;elbow&quot;:&quot;vertical&quot;,&quot;curved&quot;:0,&quot;rounded&quot;:0};" vertex="1" parent="d961pAcXIoGaJ5iv9Bcx-3">
          <mxGeometry x="45" y="80" width="10" height="210" as="geometry" />
        </mxCell>
        <mxCell id="d961pAcXIoGaJ5iv9Bcx-5" style="edgeStyle=elbowEdgeStyle;rounded=0;orthogonalLoop=1;jettySize=auto;html=1;elbow=vertical;curved=0;strokeWidth=3;" edge="1" parent="1" source="aM9ryv3xv72pqoxQDRHE-6" target="d961pAcXIoGaJ5iv9Bcx-2">
          <mxGeometry relative="1" as="geometry">
            <mxPoint x="330" y="250" as="sourcePoint" />
            <mxPoint x="460" y="250" as="targetPoint" />
            <Array as="points">
              <mxPoint x="330" y="250" />
            </Array>
          </mxGeometry>
        </mxCell>
        <mxCell id="d961pAcXIoGaJ5iv9Bcx-8" value="Validate Cart" style="edgeLabel;html=1;align=center;verticalAlign=middle;resizable=0;points=[];fontStyle=1;fontSize=12;" vertex="1" connectable="0" parent="d961pAcXIoGaJ5iv9Bcx-5">
          <mxGeometry x="-0.1792" relative="1" as="geometry">
            <mxPoint x="9" y="-10" as="offset" />
          </mxGeometry>
        </mxCell>
        <mxCell id="d961pAcXIoGaJ5iv9Bcx-6" style="edgeStyle=elbowEdgeStyle;rounded=0;orthogonalLoop=1;jettySize=auto;html=1;elbow=vertical;curved=0;strokeWidth=3;entryX=0.5;entryY=0.81;entryDx=0;entryDy=0;entryPerimeter=0;" edge="1" parent="1" source="d961pAcXIoGaJ5iv9Bcx-2">
          <mxGeometry relative="1" as="geometry">
            <mxPoint x="480" y="370" as="sourcePoint" />
            <mxPoint x="645" y="370.1" as="targetPoint" />
          </mxGeometry>
        </mxCell>
        <mxCell id="d961pAcXIoGaJ5iv9Bcx-7" value="&lt;b&gt;&lt;font style=&quot;font-size: 12px;&quot;&gt;Create Order&lt;/font&gt;&lt;/b&gt;" style="edgeLabel;html=1;align=center;verticalAlign=middle;resizable=0;points=[];" vertex="1" connectable="0" parent="d961pAcXIoGaJ5iv9Bcx-6">
          <mxGeometry x="-0.2259" y="1" relative="1" as="geometry">
            <mxPoint x="21" y="-9" as="offset" />
          </mxGeometry>
        </mxCell>
        <mxCell id="d961pAcXIoGaJ5iv9Bcx-10" value="&lt;b&gt;&lt;font style=&quot;font-size: 12px;&quot;&gt;Payment Confirmation&lt;/font&gt;&lt;/b&gt;" style="html=1;verticalAlign=bottom;endArrow=block;edgeStyle=elbowEdgeStyle;elbow=vertical;curved=0;rounded=0;dashed=1;strokeWidth=3;" edge="1" parent="1" source="d961pAcXIoGaJ5iv9Bcx-2">
          <mxGeometry x="0.0345" relative="1" as="geometry">
            <mxPoint x="450" y="350" as="sourcePoint" />
            <Array as="points">
              <mxPoint x="395" y="350" />
            </Array>
            <mxPoint x="315" y="350" as="targetPoint" />
            <mxPoint as="offset" />
          </mxGeometry>
        </mxCell>
        <mxCell id="d961pAcXIoGaJ5iv9Bcx-11" value="&lt;b&gt;&lt;font style=&quot;font-size: 12px;&quot;&gt;Order Created&lt;/font&gt;&lt;/b&gt;" style="html=1;verticalAlign=bottom;endArrow=open;dashed=1;endSize=8;edgeStyle=elbowEdgeStyle;elbow=horizontal;curved=0;rounded=0;strokeWidth=3;" edge="1" parent="1" source="d961pAcXIoGaJ5iv9Bcx-4" target="d961pAcXIoGaJ5iv9Bcx-2">
          <mxGeometry relative="1" as="geometry">
            <mxPoint x="480" y="400" as="targetPoint" />
            <Array as="points">
              <mxPoint x="580" y="400" />
            </Array>
            <mxPoint x="650" y="400" as="sourcePoint" />
          </mxGeometry>
        </mxCell>
        <mxCell id="d961pAcXIoGaJ5iv9Bcx-19" value="&lt;h1 style=&quot;font-size: 24px;&quot;&gt;&lt;strong style=&quot;font-size: 24px;&quot;&gt;Checkout Sequence Diagram&lt;/strong&gt;&lt;/h1&gt;&lt;pre style=&quot;font-size: 24px;&quot;&gt;&lt;div style=&quot;font-size: 24px;&quot; class=&quot;dark bg-gray-950 rounded-md border-[0.5px] border-token-border-medium&quot;&gt;&lt;div style=&quot;font-size: 24px;&quot; class=&quot;flex items-center relative text-token-text-secondary bg-token-main-surface-secondary px-4 py-2 text-xs font-sans justify-between rounded-t-md&quot;&gt;&lt;/div&gt;&lt;/div&gt;&lt;/pre&gt;" style="text;html=1;align=center;verticalAlign=middle;resizable=0;points=[];autosize=1;strokeColor=#d6b656;fillColor=#fff2cc;rounded=1;glass=1;strokeWidth=3;sketch=1;curveFitting=1;jiggle=2;shadow=1;fontStyle=1;fontSize=24;" vertex="1" parent="1">
          <mxGeometry x="200" y="20" width="360" height="80" as="geometry" />
        </mxCell>
      </root>
    </mxGraphModel>
  </diagram>
</mxfile>
